<svg xmlns="http://www.w3.org/2000/svg" viewBox="0 0 64 64">
  <defs>
    <linearGradient id="g" x1="0%" y1="0%" x2="100%" y2="100%">
      <stop offset="0%" style="stop-color:#7ec8e3"/>
      <stop offset="100%" style="stop-color:#4a90a4"/>
    </linearGradient>
  </defs>
  <path d="M32 4C16 4 6 16 6 28c0 10 5 18 13 22l3-5c2-3 5-5 10-5s8 2 10 5l3 5c8-4 13-12 13-22C58 16 48 4 32 4z" fill="url(#g)"/>
  <path d="M22 32c0-4 2-7 5-9s7-2 10 0 5 5 5 9" stroke="rgba(255,255,255,0.5)" stroke-width="2.5" fill="none"/>
  <circle cx="32" cy="22" r="3.5" fill="rgba(255,255,255,0.7)"/>
</svg>
